<svg height="512" viewBox="0 0 128 128" width="512" xmlns="http://www.w3.org/2000/svg"><g><path d="m121.894 98.545c-.049-.011-4.676-1.982-1.928-15.824 1.39-7 1.1-13.432-.83-18.613-1.707-4.573-4.631-7.73-8.118-8.838-2.79-7.085-9.68-11.1-20.592-11.945a219.132 219.132 0 0 1 -25.5-3.361 6.8 6.8 0 0 0 .574-2.854c0-5.274-3.758-9.087-10.353-10.589a18.8 18.8 0 0 0 -.754-2.386c4.088-5.758 1.18-14.135-4.185-18.935a1.75 1.75 0 0 0 -2.908 1.11 51.428 51.428 0 0 1 -1.931 9.018 28.485 28.485 0 0 0 -10.249-1.658 28.468 28.468 0 0 0 -10.246 1.658 52 52 0 0 1 -1.924-9.018 1.751 1.751 0 0 0 -2.908-1.11c-5.369 4.81-8.277 13.194-4.174 18.952a18.909 18.909 0 0 0 -.75 2.369c-6.604 1.497-10.368 5.311-10.368 10.589a5.809 5.809 0 0 0 2.6 5.208 7.708 7.708 0 0 0 4.2 1.086 13.7 13.7 0 0 0 3.949-.647c.431 2.141.912 4.065 1.3 5.593a22.691 22.691 0 0 0 2.5 6.11 6.515 6.515 0 0 0 -.8 3.082c0 2.85 1.927 5.378 5.053 7.171a85.036 85.036 0 0 0 2.607 10.487c.011.036.022.059.034.09v.024s.019.042.026.061.02.057.029.079a34.354 34.354 0 0 0 1.523 3.788c4.232 11.519 7.394 27.929 7.7 34.487-2.386 2.171-2.394 5.844-2.394 7.77a1.751 1.751 0 0 0 1.75 1.75h23.221a1.751 1.751 0 0 0 1.75-1.75c0-1.99-.01-5.841-2.638-7.977.8-5.031 2.408-13.574 3.484-19.193 5.894 0 11.491 0 16.5-.186a126.9 126.9 0 0 1 3.332 19.583c-2.389 2.171-2.4 5.846-2.4 7.773a1.751 1.751 0 0 0 1.75 1.75h23.218a1.751 1.751 0 0 0 1.75-1.75c0-1.987-.01-5.83-2.627-7.969 1.653-9.454 8.133-36.848 8.185-37.072a48.288 48.288 0 0 0 2.088-12.938 26.387 26.387 0 0 0 -.268-3.705 12.656 12.656 0 0 1 3.684 5.517c1.683 4.506 1.923 10.439.678 16.707-3.48 17.528 3.738 19.724 4.572 19.916a1.75 1.75 0 0 0 .788-3.41zm-59.894-61.435a2.351 2.351 0 0 1 -1 2.267c-1.172.756-3.34.7-5.637-.09a39.973 39.973 0 0 0 .39-8.981c2.968.927 6.247 2.842 6.247 6.804zm-11.8-26.7c2.239 3.118 3.336 6.972 2.189 10.1-.058-.077-.111-.158-.171-.234a14.749 14.749 0 0 0 -3.709-3.323 46.968 46.968 0 0 0 1.691-6.545zm-.743 12.011c3.524 4.523 3.252 11.62 2.242 17.6v.008c-.489 2.892-1.149 5.525-1.639 7.468a20.054 20.054 0 0 1 -1.536 4.132c-3-2.436-7.834-4-13.4-4s-10.4 1.561-13.4 4a20.057 20.057 0 0 1 -1.536-4.13c-1.5-5.962-4.628-18.368.6-25.076 2.712-3.488 7.534-5.253 14.332-5.253s11.627 1.766 14.341 5.249zm-29.412-12.011a47.34 47.34 0 0 0 1.685 6.537 14.7 14.7 0 0 0 -3.7 3.317c-.062.079-.108.166-.167.246-1.155-3.124-.057-6.98 2.182-10.1zm-10.795 28.967a2.351 2.351 0 0 1 -1-2.267c0-3.967 3.289-5.883 6.259-6.807a39.986 39.986 0 0 0 .384 8.982c-2.3.79-4.471.849-5.643.092zm25.875 11.748c7.735 0 13.125 3.382 13.125 6.417s-5.39 6.416-13.125 6.416-13.125-3.381-13.125-6.416 5.39-6.417 13.125-6.417zm11.729 62.609a5.739 5.739 0 0 0 -.411.415 5.7 5.7 0 0 0 -.658-.652c.177-1.1.4-2.44.667-3.952.212 1.63.348 3.055.402 4.189zm-4.394-1.6a11.084 11.084 0 0 0 -1.71-.134 10.63 10.63 0 0 0 -1.878.172 157.639 157.639 0 0 0 -4.794-24.564 25.482 25.482 0 0 0 8.993 4.675c.607 2.412 1.155 4.839 1.644 7.239-.615 3.309-1.604 8.663-2.255 12.615zm-4.29 3.915c.043-.027.085-.055.125-.086a5.124 5.124 0 0 1 2.455-.466c2.739 0 3.549 1.03 3.909 2.807-.077.5-.126.984-.153 1.443h-7.872c.143-1.979.592-3.105 1.536-3.695zm9.849 3.7a11.6 11.6 0 0 1 .14-1.173c0-.015.007-.028.009-.042a3.362 3.362 0 0 1 1.4-2.49c.038-.024.074-.049.109-.076a5.1 5.1 0 0 1 2.459-.469c2.823 0 3.877.96 4.113 4.25zm43.836-6.017a5.57 5.57 0 0 0 -.412.416 5.7 5.7 0 0 0 -.658-.652c.189-1.179.417-2.526.667-3.958.213 1.635.348 3.062.403 4.195zm-4.4-1.6a11.084 11.084 0 0 0 -1.705-.132 10.669 10.669 0 0 0 -1.872.171 139.438 139.438 0 0 0 -3.176-18.2c2.841-.167 5.367-.4 7.608-.722.5 2.04.968 4.145 1.405 6.278-.733 3.925-1.646 8.912-2.255 12.61zm-4.291 3.916q.065-.041.126-.087a5.122 5.122 0 0 1 2.455-.466c2.739 0 3.549 1.03 3.909 2.807-.077.5-.126.984-.153 1.443h-7.867c.143-1.976.591-3.102 1.535-3.692zm9.85 3.7a11.6 11.6 0 0 1 .14-1.173c0-.015.007-.028.009-.042.413-2.311 1.527-3.035 3.963-3.035a5.156 5.156 0 0 1 2.418.452c.021.01.042.018.063.027 1.018.57 1.484 1.716 1.632 3.771zm13.948-44.163c-.271 1.145-6.247 26.407-8.1 36.558a10.8 10.8 0 0 0 -1.731-.143 10.69 10.69 0 0 0 -1.873.171 117.3 117.3 0 0 0 -2.043-13.009v-.017-.015c-.575-2.83-1.212-5.617-1.892-8.283a1.749 1.749 0 0 0 -1.988-1.293 89.619 89.619 0 0 1 -10.9 1.038c-5.338.239-11.48.242-18 .238l-1.235-.01a1.75 1.75 0 0 0 -1.718 1.419c-1.01 5.248-2.719 14.268-3.644 19.9a10.372 10.372 0 0 0 -3.58.03 117.877 117.877 0 0 0 -2.043-13.017v-.018-.016c-.579-2.87-1.249-5.789-1.993-8.677a1.75 1.75 0 0 0 -1.234-1.251c-6.859-1.872-11.172-5.363-13.988-11.315-.465-1.265-.974-2.534-1.515-3.774l-.008-.02a70.007 70.007 0 0 1 -2.012-7.707 26.5 26.5 0 0 0 7.663 1.088c9.322 0 16.625-4.355 16.625-9.916a6.515 6.515 0 0 0 -.8-3.082 22.712 22.712 0 0 0 2.5-6.112c.385-1.528.868-3.448 1.3-5.59a13.69 13.69 0 0 0 3.947.638 8.571 8.571 0 0 0 3.059-.531 210.21 210.21 0 0 0 28.393 3.941c12.648.99 18.788 6.453 18.788 16.71a45.254 45.254 0 0 1 -1.973 12.067z"/><path d="m89.964 49.309c-2.68-.208-5.358-.455-7.959-.734a1.75 1.75 0 0 0 -.373 3.48c2.635.282 5.347.532 8.061.743q.069.006.138.006a1.75 1.75 0 0 0 .133-3.5z"/><path d="m25.5 37.754a4.75 4.75 0 1 0 -4.75-4.754 4.756 4.756 0 0 0 4.75 4.754zm0-6a1.25 1.25 0 1 1 -1.25 1.246 1.251 1.251 0 0 1 1.25-1.246z"/><path d="m44.75 37.754a4.75 4.75 0 1 0 -4.75-4.754 4.756 4.756 0 0 0 4.75 4.754zm0-6a1.25 1.25 0 1 1 -1.25 1.246 1.251 1.251 0 0 1 1.25-1.246z"/></g></svg>