<svg id="Layer_1" enable-background="new 0 0 512.026 512.026" height="512" viewBox="0 0 512.026 512.026" width="512" xmlns="http://www.w3.org/2000/svg"><path d="m504.026 276.13h-131.416c10.659-17.181 17.931-35.784 21.227-54.543 2.37-13.483 14.676-15.804 16.436-16.989 18.034-7.774 27.729-27.92 22.549-46.863-5.202-19.027-23.205-31.196-42.896-28.915-7.191.826-14.318-2.435-18.616-8.521-19.096-27.045-48.831-47.849-83.729-58.578-48.224-14.827-100.291-9.418-144.28 10.304-4.032 1.808-5.835 6.541-4.027 10.573 1.809 4.031 6.542 5.836 10.572 4.027 40.477-18.147 88.521-23.296 133.033-9.61 31.532 9.694 58.296 28.344 75.36 52.514 7.677 10.872 20.531 16.695 33.622 15.173 11.692-1.347 22.423 5.903 25.526 17.253 3.089 11.298-2.692 23.314-13.448 27.95-1.35.96-21.857 6.129-25.86 28.914-3.488 19.853-11.995 39.589-24.676 57.312h-95.787c-4.418 0-8 3.582-8 8s3.582 8 8 8h215.305c-7.117 38.502-28.618 72.494-59.938 94.251-3.628 2.521-4.526 7.506-2.006 11.134 2.522 3.629 7.505 4.527 11.135 2.006 35.577-24.714 59.735-63.566 67.05-107.392h6.665c-4.178 83.775-73.646 150.64-158.44 150.64-84.795 0-154.263-66.865-158.441-150.64h6.654c12.793 76.565 76.154 134.109 151.787 134.109 15.264 0 30.343-2.347 44.817-6.975 4.208-1.346 6.529-5.848 5.184-10.057-1.346-4.208-5.849-6.53-10.057-5.184-12.897 4.124-26.336 6.215-39.944 6.215-66.169 0-122.977-50.17-135.537-118.109h15.279c4.418 0 8-3.582 8-8s-3.582-8-8-8h-46.382c-4.418 0-8 3.582-8 8 0 22.801 4.294 44.932 12.818 65.798-38.77-5.309-73.203-22.956-95.924-49.513-5.408-6.321-12.651-10.487-20.504-12.02-7.695-1.502-12.95-.076-16.47.286-11.655 1.2-22.71-5.921-25.799-17.219-3.103-11.349 2.557-22.817 13.172-27.829 12.411-5.86 20.208-17.357 21.249-30.181 2.645-32.574 18.552-64.689 44.79-90.432 3.154-3.094 3.202-8.159.108-11.313-3.095-3.154-8.159-3.204-11.313-.108-28.985 28.437-46.576 64.148-49.532 100.558-1.032 12.694-11.682 16.764-11.782 16.848-18.022 8.019-27.328 27.649-22.126 46.678 5.18 18.943 23.778 31.36 43.256 28.871 2.01.119 13.918-4.109 22.792 6.264 27.269 31.872 69.411 52.17 116.164 56.093 29.544 54.65 87.377 91.861 153.741 91.861 96.297 0 174.64-78.343 174.64-174.64-.001-4.419-3.583-8.001-8.001-8.001z"/><path d="m366.584 354.936c0-10.141-2.578-21.999-6.897-31.72-7.263-16.348-16.136-19.779-22.3-19.779-19.441 0-29.198 33.017-29.198 51.5 0 24.369 14.665 35.277 29.198 35.277s29.197-10.908 29.197-35.278zm-42.396 0c0-19.125 10.061-35.5 13.198-35.5s13.197 16.374 13.197 35.5c0 12.07-4.934 19.277-13.197 19.277-8.264 0-13.198-7.206-13.198-19.277z"/><path d="m251.772 359.779c12.761 5.507 25.523-.239 31.219-13.438 5.604-12.987 5.645-35.294-7.707-41.055-13.275-5.73-29.424 9.28-35.154 22.562-6.013 13.935-.392 26.74 11.642 31.931zm3.049-25.593c3.27-7.578 11.282-13.958 14.097-14.144 1.796 2.175 2.651 12.381-.618 19.958-1.573 3.648-4.617 7.49-10.189 5.086-4.812-2.074-5.34-6.147-3.29-10.9z"/><path d="m423 359.779c11.997-5.176 17.673-17.956 11.643-31.932-5.731-13.282-21.883-28.291-35.155-22.561-13.276 5.729-13.436 27.772-7.705 41.054 6.099 14.141 19.385 18.543 31.217 13.439zm-17.145-39.736c2.815.187 10.827 6.566 14.097 14.144 2.047 4.745 1.528 8.822-3.291 10.902-4.81 2.077-8.137-.334-10.188-5.086-3.269-7.578-2.414-17.784-.618-19.96z"/><path d="m118.826 102.89c3.888-.838 6.44-4.091 6.44-7.85 0-5.099-4.702-8.83-9.561-7.84-3.769.74-6.439 4.061-6.439 7.84 0 5.064 4.635 8.817 9.56 7.85z"/></svg>